<svg width="169" height="135" viewBox="0 0 169 135" fill="none" xmlns="http://www.w3.org/2000/svg">
<g clip-path="url(#clip0_410_5061)">
<path d="M128.678 51.6193H88.5998V66.3849C88.5998 76.8527 80.0832 85.3693 69.6154 85.3693C59.1476 85.3693 50.631 76.8527 50.631 66.3849V34.3224L33.5187 44.6056C28.4298 47.6378 25.3185 53.1486 25.3185 59.0548V71.5265L4.22476 83.7082C0.190584 86.0285 -1.20688 91.1964 1.1398 95.2306L22.2336 131.776C24.5539 135.81 29.7218 137.181 33.756 134.861L61.0197 119.119H97.0373C106.345 119.119 113.912 111.552 113.912 102.244H118.131C122.798 102.244 126.569 98.4738 126.569 93.8068V76.9318H128.678C132.185 76.9318 135.006 74.1105 135.006 70.6037V57.9474C135.006 54.4406 132.185 51.6193 128.678 51.6193ZM167.622 41.758L146.528 5.21305C144.208 1.17887 139.04 -0.192227 135.006 2.12809L107.742 17.8693H80.7951C77.631 17.8693 74.5461 18.7658 71.8566 20.4269L63.0236 25.9377C60.5451 27.467 59.0685 30.1828 59.0685 33.0832V66.3849C59.0685 72.2121 63.7882 76.9318 69.6154 76.9318C75.4425 76.9318 80.1623 72.2121 80.1623 66.3849V43.1818H128.678C136.825 43.1818 143.444 49.8 143.444 57.9474V65.4621L164.537 53.2804C168.571 50.9338 169.943 45.7921 167.622 41.758Z" fill="#024D3A"/>
</g>
<defs>
<clipPath id="clip0_410_5061">
<rect width="168.75" height="135" fill="white"/>
</clipPath>
</defs>
</svg>
