<svg width="169" height="168" viewBox="0 0 169 168" fill="none" xmlns="http://www.w3.org/2000/svg">
<path d="M84.75 7C101.459 7 117.483 13.6375 129.298 25.4523C141.113 37.2671 147.75 53.2914 147.75 70C147.75 96.082 127.87 123.41 88.95 152.6C87.7383 153.509 86.2646 154 84.75 154C83.2354 154 81.7617 153.509 80.55 152.6C41.63 123.41 21.75 96.082 21.75 70C21.75 53.2914 28.3875 37.2671 40.2023 25.4523C52.0171 13.6375 68.0414 7 84.75 7ZM84.75 49C79.1805 49 73.839 51.2125 69.9008 55.1508C65.9625 59.089 63.75 64.4305 63.75 70C63.75 75.5695 65.9625 80.911 69.9008 84.8492C73.839 88.7875 79.1805 91 84.75 91C90.3195 91 95.661 88.7875 99.5992 84.8492C103.538 80.911 105.75 75.5695 105.75 70C105.75 64.4305 103.538 59.089 99.5992 55.1508C95.661 51.2125 90.3195 49 84.75 49Z" fill="#024D3A"/>
</svg>
