<svg width="158" height="157" viewBox="0 0 158 157" fill="none" xmlns="http://www.w3.org/2000/svg">
<path d="M82.6093 17.3638C81.6825 16.54 80.4856 16.085 79.2456 16.085C78.0056 16.085 76.8087 16.54 75.8819 17.3638C71.0575 21.6361 67.2099 26.8975 64.601 32.7899C61.9921 38.6823 60.683 45.0676 60.7628 51.5113C60.7691 52.1879 60.9502 52.8513 61.2886 53.4373C61.627 54.0232 62.111 54.5117 62.6939 54.8554C67.7797 57.8619 72.3777 61.626 76.3293 66.0181C76.6974 66.4267 77.1471 66.7533 77.6495 66.977C78.1519 67.2006 78.6957 67.3161 79.2456 67.3161C79.7955 67.3161 80.3393 67.2006 80.8416 66.977C81.344 66.7533 81.7938 66.4267 82.1619 66.0181C86.1136 61.6261 90.7115 57.862 95.7973 54.8554C96.3775 54.5114 96.8593 54.0237 97.1962 53.4393C97.5331 52.855 97.7137 52.1936 97.7206 51.5191C97.8013 45.0761 96.4934 38.6912 93.8859 32.7988C91.2783 26.9064 87.4323 21.6447 82.6093 17.3716V17.3638ZM24.4251 95.8481C24.3638 95.1641 24.4384 94.4748 24.6446 93.8198C24.8509 93.1648 25.1848 92.5571 25.627 92.0317C26.0692 91.5063 26.611 91.0736 27.2211 90.7586C27.8313 90.4436 28.4978 90.2524 29.1822 90.1961C39.6311 89.3252 50.0892 91.764 59.0751 97.167C68.061 102.57 75.119 110.664 79.2495 120.301C83.3758 110.66 90.431 102.563 99.4156 97.1556C108.4 91.7482 118.859 89.3052 129.309 90.1725C132.182 90.408 134.333 92.9436 134.066 95.8245C132.939 108.251 127.206 119.808 117.992 128.222C108.779 136.637 96.7513 141.302 84.2735 141.3H80.6233C80.1564 141.299 79.6917 141.235 79.2417 141.111C78.7891 141.236 78.3217 141.3 77.8522 141.3H74.202C61.728 141.3 49.7045 136.637 40.493 128.225C31.2815 119.814 25.5475 108.263 24.4173 95.8402L24.4251 95.8481ZM79.2495 84.9837C75.1228 75.342 68.0663 67.2435 59.0802 61.836C50.094 56.4286 39.6339 53.9863 29.1822 54.8554C28.4978 54.9117 27.8313 55.1029 27.2211 55.4179C26.611 55.7329 26.0692 56.1656 25.627 56.691C25.1848 57.2164 24.8509 57.8241 24.6446 58.4791C24.4384 59.1341 24.3638 59.8234 24.4251 60.5074C25.0439 67.3948 27.089 74.0781 30.4304 80.1324C30.7675 80.7419 31.2607 81.2507 31.8594 81.6067C32.4581 81.9626 33.1408 82.1527 33.8373 82.1577C41.7762 82.2268 49.6156 83.932 56.8659 87.1668C64.1162 90.4016 70.6217 95.0965 75.9761 100.958C76.387 101.407 76.8966 101.754 77.4647 101.972C78.0328 102.19 78.6439 102.273 79.2495 102.214C79.8539 102.272 80.4634 102.188 81.03 101.97C81.5966 101.753 82.105 101.406 82.5151 100.958C87.8695 95.0965 94.375 90.4016 101.625 87.1668C108.876 83.932 116.715 82.2268 124.654 82.1577C125.35 82.1527 126.033 81.9626 126.632 81.6067C127.23 81.2507 127.724 80.7419 128.061 80.1324C131.402 74.0781 133.447 67.3948 134.066 60.5074C134.127 59.8234 134.053 59.1341 133.847 58.4791C133.64 57.8241 133.306 57.2164 132.864 56.691C132.422 56.1656 131.88 55.7329 131.27 55.4179C130.66 55.1029 129.993 54.9117 129.309 54.8554C118.859 53.988 108.4 56.4311 99.4156 61.8385C90.431 67.2458 83.3758 75.3433 79.2495 84.9837Z" fill="#024D3A"/>
</svg>
