<svg width="169" height="168" viewBox="0 0 169 168" fill="none" xmlns="http://www.w3.org/2000/svg">
<path d="M35.75 28V78.82C23.15 83.3 14.75 95.2 14.75 108.5C14.75 126 28.75 140 46.25 140C62.28 140 75.72 127.96 77.54 112H106.94C106.17 114.24 105.75 116.62 105.75 119C105.75 124.57 107.962 129.911 111.901 133.849C115.839 137.788 121.18 140 126.75 140C132.32 140 137.661 137.788 141.599 133.849C145.538 129.911 147.75 124.57 147.75 119C147.75 116.62 147.33 114.24 146.49 112H154.75V91C154.75 83.23 148.52 77 140.75 77H106.03L96.3 28H35.75ZM49.75 42H84.75L91.75 77V98H75.93C73.9355 92.4402 70.4279 87.548 65.8023 83.8747C61.1767 80.2015 55.6171 77.8932 49.75 77.21V42ZM46.25 92.75C50.4272 92.75 54.4332 94.4094 57.3869 97.3631C60.3406 100.317 62 104.323 62 108.5C62 112.677 60.3406 116.683 57.3869 119.637C54.4332 122.591 50.4272 124.25 46.25 124.25C42.0728 124.25 38.0668 122.591 35.1131 119.637C32.1594 116.683 30.5 112.677 30.5 108.5C30.5 104.323 32.1594 100.317 35.1131 97.3631C38.0668 94.4094 42.0728 92.75 46.25 92.75ZM126.75 108.5C129.535 108.5 132.205 109.606 134.175 111.575C136.144 113.545 137.25 116.215 137.25 119C137.25 121.785 136.144 124.455 134.175 126.425C132.205 128.394 129.535 129.5 126.75 129.5C123.965 129.5 121.295 128.394 119.325 126.425C117.356 124.455 116.25 121.785 116.25 119C116.25 116.215 117.356 113.545 119.325 111.575C121.295 109.606 123.965 108.5 126.75 108.5Z" fill="#024D3A"/>
</svg>
